%TF.GenerationSoftware,KiCad,Pcbnew,9.0.7*%
%TF.CreationDate,2026-03-10T17:33:03+05:30*%
%TF.ProjectId,project one,70726f6a-6563-4742-906f-6e652e6b6963,rev?*%
%TF.SameCoordinates,Original*%
%TF.FileFunction,Legend,Bot*%
%TF.FilePolarity,Positive*%
%FSLAX46Y46*%
G04 Gerber Fmt 4.6, Leading zero omitted, Abs format (unit mm)*
G04 Created by KiCad (PCBNEW 9.0.7) date 2026-03-10 17:33:03*
%MOMM*%
%LPD*%
G01*
G04 APERTURE LIST*
%ADD10C,0.100000*%
G04 APERTURE END LIST*
D10*
X110124687Y-99372419D02*
X110458020Y-98896228D01*
X110696115Y-99372419D02*
X110696115Y-98372419D01*
X110696115Y-98372419D02*
X110315163Y-98372419D01*
X110315163Y-98372419D02*
X110219925Y-98420038D01*
X110219925Y-98420038D02*
X110172306Y-98467657D01*
X110172306Y-98467657D02*
X110124687Y-98562895D01*
X110124687Y-98562895D02*
X110124687Y-98705752D01*
X110124687Y-98705752D02*
X110172306Y-98800990D01*
X110172306Y-98800990D02*
X110219925Y-98848609D01*
X110219925Y-98848609D02*
X110315163Y-98896228D01*
X110315163Y-98896228D02*
X110696115Y-98896228D01*
X109696115Y-98848609D02*
X109362782Y-98848609D01*
X109219925Y-99372419D02*
X109696115Y-99372419D01*
X109696115Y-99372419D02*
X109696115Y-98372419D01*
X109696115Y-98372419D02*
X109219925Y-98372419D01*
X108934210Y-98372419D02*
X108600877Y-99372419D01*
X108600877Y-99372419D02*
X108267544Y-98372419D01*
X107410401Y-99372419D02*
X107981829Y-99372419D01*
X107696115Y-99372419D02*
X107696115Y-98372419D01*
X107696115Y-98372419D02*
X107791353Y-98515276D01*
X107791353Y-98515276D02*
X107886591Y-98610514D01*
X107886591Y-98610514D02*
X107981829Y-98658133D01*
X106981829Y-99277180D02*
X106934210Y-99324800D01*
X106934210Y-99324800D02*
X106981829Y-99372419D01*
X106981829Y-99372419D02*
X107029448Y-99324800D01*
X107029448Y-99324800D02*
X106981829Y-99277180D01*
X106981829Y-99277180D02*
X106981829Y-99372419D01*
X105981830Y-99372419D02*
X106553258Y-99372419D01*
X106267544Y-99372419D02*
X106267544Y-98372419D01*
X106267544Y-98372419D02*
X106362782Y-98515276D01*
X106362782Y-98515276D02*
X106458020Y-98610514D01*
X106458020Y-98610514D02*
X106553258Y-98658133D01*
M02*
