%TF.GenerationSoftware,KiCad,Pcbnew,9.0.7*%
%TF.CreationDate,2026-03-10T17:33:03+05:30*%
%TF.ProjectId,project one,70726f6a-6563-4742-906f-6e652e6b6963,rev?*%
%TF.SameCoordinates,Original*%
%TF.FileFunction,Legend,Top*%
%TF.FilePolarity,Positive*%
%FSLAX46Y46*%
G04 Gerber Fmt 4.6, Leading zero omitted, Abs format (unit mm)*
G04 Created by KiCad (PCBNEW 9.0.7) date 2026-03-10 17:33:03*
%MOMM*%
%LPD*%
G01*
G04 APERTURE LIST*
%ADD10C,0.150000*%
%ADD11C,0.000000*%
%ADD12C,0.120000*%
G04 APERTURE END LIST*
D10*
X130333333Y-86859580D02*
X130285714Y-86907200D01*
X130285714Y-86907200D02*
X130142857Y-86954819D01*
X130142857Y-86954819D02*
X130047619Y-86954819D01*
X130047619Y-86954819D02*
X129904762Y-86907200D01*
X129904762Y-86907200D02*
X129809524Y-86811961D01*
X129809524Y-86811961D02*
X129761905Y-86716723D01*
X129761905Y-86716723D02*
X129714286Y-86526247D01*
X129714286Y-86526247D02*
X129714286Y-86383390D01*
X129714286Y-86383390D02*
X129761905Y-86192914D01*
X129761905Y-86192914D02*
X129809524Y-86097676D01*
X129809524Y-86097676D02*
X129904762Y-86002438D01*
X129904762Y-86002438D02*
X130047619Y-85954819D01*
X130047619Y-85954819D02*
X130142857Y-85954819D01*
X130142857Y-85954819D02*
X130285714Y-86002438D01*
X130285714Y-86002438D02*
X130333333Y-86050057D01*
X131285714Y-86954819D02*
X130714286Y-86954819D01*
X131000000Y-86954819D02*
X131000000Y-85954819D01*
X131000000Y-85954819D02*
X130904762Y-86097676D01*
X130904762Y-86097676D02*
X130809524Y-86192914D01*
X130809524Y-86192914D02*
X130714286Y-86240533D01*
X138714819Y-59906904D02*
X139524342Y-59906904D01*
X139524342Y-59906904D02*
X139619580Y-59859285D01*
X139619580Y-59859285D02*
X139667200Y-59811666D01*
X139667200Y-59811666D02*
X139714819Y-59716428D01*
X139714819Y-59716428D02*
X139714819Y-59525952D01*
X139714819Y-59525952D02*
X139667200Y-59430714D01*
X139667200Y-59430714D02*
X139619580Y-59383095D01*
X139619580Y-59383095D02*
X139524342Y-59335476D01*
X139524342Y-59335476D02*
X138714819Y-59335476D01*
X139714819Y-58335476D02*
X139714819Y-58906904D01*
X139714819Y-58621190D02*
X138714819Y-58621190D01*
X138714819Y-58621190D02*
X138857676Y-58716428D01*
X138857676Y-58716428D02*
X138952914Y-58811666D01*
X138952914Y-58811666D02*
X139000533Y-58906904D01*
X109644819Y-92641904D02*
X109644819Y-92070476D01*
X110644819Y-92356190D02*
X109644819Y-92356190D01*
X110644819Y-91737142D02*
X109644819Y-91737142D01*
X109644819Y-91737142D02*
X109644819Y-91356190D01*
X109644819Y-91356190D02*
X109692438Y-91260952D01*
X109692438Y-91260952D02*
X109740057Y-91213333D01*
X109740057Y-91213333D02*
X109835295Y-91165714D01*
X109835295Y-91165714D02*
X109978152Y-91165714D01*
X109978152Y-91165714D02*
X110073390Y-91213333D01*
X110073390Y-91213333D02*
X110121009Y-91260952D01*
X110121009Y-91260952D02*
X110168628Y-91356190D01*
X110168628Y-91356190D02*
X110168628Y-91737142D01*
X109644819Y-90832380D02*
X109644819Y-90213333D01*
X109644819Y-90213333D02*
X110025771Y-90546666D01*
X110025771Y-90546666D02*
X110025771Y-90403809D01*
X110025771Y-90403809D02*
X110073390Y-90308571D01*
X110073390Y-90308571D02*
X110121009Y-90260952D01*
X110121009Y-90260952D02*
X110216247Y-90213333D01*
X110216247Y-90213333D02*
X110454342Y-90213333D01*
X110454342Y-90213333D02*
X110549580Y-90260952D01*
X110549580Y-90260952D02*
X110597200Y-90308571D01*
X110597200Y-90308571D02*
X110644819Y-90403809D01*
X110644819Y-90403809D02*
X110644819Y-90689523D01*
X110644819Y-90689523D02*
X110597200Y-90784761D01*
X110597200Y-90784761D02*
X110549580Y-90832380D01*
X130184819Y-92641904D02*
X130184819Y-92070476D01*
X131184819Y-92356190D02*
X130184819Y-92356190D01*
X131184819Y-91737142D02*
X130184819Y-91737142D01*
X130184819Y-91737142D02*
X130184819Y-91356190D01*
X130184819Y-91356190D02*
X130232438Y-91260952D01*
X130232438Y-91260952D02*
X130280057Y-91213333D01*
X130280057Y-91213333D02*
X130375295Y-91165714D01*
X130375295Y-91165714D02*
X130518152Y-91165714D01*
X130518152Y-91165714D02*
X130613390Y-91213333D01*
X130613390Y-91213333D02*
X130661009Y-91260952D01*
X130661009Y-91260952D02*
X130708628Y-91356190D01*
X130708628Y-91356190D02*
X130708628Y-91737142D01*
X130280057Y-90784761D02*
X130232438Y-90737142D01*
X130232438Y-90737142D02*
X130184819Y-90641904D01*
X130184819Y-90641904D02*
X130184819Y-90403809D01*
X130184819Y-90403809D02*
X130232438Y-90308571D01*
X130232438Y-90308571D02*
X130280057Y-90260952D01*
X130280057Y-90260952D02*
X130375295Y-90213333D01*
X130375295Y-90213333D02*
X130470533Y-90213333D01*
X130470533Y-90213333D02*
X130613390Y-90260952D01*
X130613390Y-90260952D02*
X131184819Y-90832380D01*
X131184819Y-90832380D02*
X131184819Y-90213333D01*
X131884819Y-68241904D02*
X131884819Y-67670476D01*
X132884819Y-67956190D02*
X131884819Y-67956190D01*
X132884819Y-67337142D02*
X131884819Y-67337142D01*
X131884819Y-67337142D02*
X131884819Y-66956190D01*
X131884819Y-66956190D02*
X131932438Y-66860952D01*
X131932438Y-66860952D02*
X131980057Y-66813333D01*
X131980057Y-66813333D02*
X132075295Y-66765714D01*
X132075295Y-66765714D02*
X132218152Y-66765714D01*
X132218152Y-66765714D02*
X132313390Y-66813333D01*
X132313390Y-66813333D02*
X132361009Y-66860952D01*
X132361009Y-66860952D02*
X132408628Y-66956190D01*
X132408628Y-66956190D02*
X132408628Y-67337142D01*
X132884819Y-65813333D02*
X132884819Y-66384761D01*
X132884819Y-66099047D02*
X131884819Y-66099047D01*
X131884819Y-66099047D02*
X132027676Y-66194285D01*
X132027676Y-66194285D02*
X132122914Y-66289523D01*
X132122914Y-66289523D02*
X132170533Y-66384761D01*
X131954819Y-69916666D02*
X131478628Y-70249999D01*
X131954819Y-70488094D02*
X130954819Y-70488094D01*
X130954819Y-70488094D02*
X130954819Y-70107142D01*
X130954819Y-70107142D02*
X131002438Y-70011904D01*
X131002438Y-70011904D02*
X131050057Y-69964285D01*
X131050057Y-69964285D02*
X131145295Y-69916666D01*
X131145295Y-69916666D02*
X131288152Y-69916666D01*
X131288152Y-69916666D02*
X131383390Y-69964285D01*
X131383390Y-69964285D02*
X131431009Y-70011904D01*
X131431009Y-70011904D02*
X131478628Y-70107142D01*
X131478628Y-70107142D02*
X131478628Y-70488094D01*
X131050057Y-69535713D02*
X131002438Y-69488094D01*
X131002438Y-69488094D02*
X130954819Y-69392856D01*
X130954819Y-69392856D02*
X130954819Y-69154761D01*
X130954819Y-69154761D02*
X131002438Y-69059523D01*
X131002438Y-69059523D02*
X131050057Y-69011904D01*
X131050057Y-69011904D02*
X131145295Y-68964285D01*
X131145295Y-68964285D02*
X131240533Y-68964285D01*
X131240533Y-68964285D02*
X131383390Y-69011904D01*
X131383390Y-69011904D02*
X131954819Y-69583332D01*
X131954819Y-69583332D02*
X131954819Y-68964285D01*
X120984819Y-70186666D02*
X120508628Y-70519999D01*
X120984819Y-70758094D02*
X119984819Y-70758094D01*
X119984819Y-70758094D02*
X119984819Y-70377142D01*
X119984819Y-70377142D02*
X120032438Y-70281904D01*
X120032438Y-70281904D02*
X120080057Y-70234285D01*
X120080057Y-70234285D02*
X120175295Y-70186666D01*
X120175295Y-70186666D02*
X120318152Y-70186666D01*
X120318152Y-70186666D02*
X120413390Y-70234285D01*
X120413390Y-70234285D02*
X120461009Y-70281904D01*
X120461009Y-70281904D02*
X120508628Y-70377142D01*
X120508628Y-70377142D02*
X120508628Y-70758094D01*
X120984819Y-69234285D02*
X120984819Y-69805713D01*
X120984819Y-69519999D02*
X119984819Y-69519999D01*
X119984819Y-69519999D02*
X120127676Y-69615237D01*
X120127676Y-69615237D02*
X120222914Y-69710475D01*
X120222914Y-69710475D02*
X120270533Y-69805713D01*
X106859580Y-66166666D02*
X106907200Y-66214285D01*
X106907200Y-66214285D02*
X106954819Y-66357142D01*
X106954819Y-66357142D02*
X106954819Y-66452380D01*
X106954819Y-66452380D02*
X106907200Y-66595237D01*
X106907200Y-66595237D02*
X106811961Y-66690475D01*
X106811961Y-66690475D02*
X106716723Y-66738094D01*
X106716723Y-66738094D02*
X106526247Y-66785713D01*
X106526247Y-66785713D02*
X106383390Y-66785713D01*
X106383390Y-66785713D02*
X106192914Y-66738094D01*
X106192914Y-66738094D02*
X106097676Y-66690475D01*
X106097676Y-66690475D02*
X106002438Y-66595237D01*
X106002438Y-66595237D02*
X105954819Y-66452380D01*
X105954819Y-66452380D02*
X105954819Y-66357142D01*
X105954819Y-66357142D02*
X106002438Y-66214285D01*
X106002438Y-66214285D02*
X106050057Y-66166666D01*
X106050057Y-65785713D02*
X106002438Y-65738094D01*
X106002438Y-65738094D02*
X105954819Y-65642856D01*
X105954819Y-65642856D02*
X105954819Y-65404761D01*
X105954819Y-65404761D02*
X106002438Y-65309523D01*
X106002438Y-65309523D02*
X106050057Y-65261904D01*
X106050057Y-65261904D02*
X106145295Y-65214285D01*
X106145295Y-65214285D02*
X106240533Y-65214285D01*
X106240533Y-65214285D02*
X106383390Y-65261904D01*
X106383390Y-65261904D02*
X106954819Y-65833332D01*
X106954819Y-65833332D02*
X106954819Y-65214285D01*
D11*
%TO.C,G\u002A\u002A\u002A*%
G36*
X126535393Y-95383917D02*
G01*
X126650643Y-95458096D01*
X126721078Y-95571875D01*
X126748200Y-95735297D01*
X126733511Y-95958404D01*
X126678514Y-96251238D01*
X126670414Y-96286647D01*
X126635835Y-96468072D01*
X126615688Y-96639208D01*
X126613898Y-96750836D01*
X126618333Y-96850299D01*
X126593388Y-96898854D01*
X126516242Y-96918227D01*
X126430718Y-96925216D01*
X126281597Y-96921626D01*
X126201746Y-96887031D01*
X126198180Y-96882059D01*
X126156806Y-96852130D01*
X126080292Y-96867231D01*
X126001832Y-96901551D01*
X125801591Y-96967513D01*
X125619929Y-96958257D01*
X125546327Y-96933886D01*
X125412216Y-96833970D01*
X125329253Y-96672286D01*
X125306348Y-96504010D01*
X125319602Y-96406308D01*
X125715879Y-96406308D01*
X125720142Y-96518709D01*
X125774898Y-96607497D01*
X125787918Y-96616341D01*
X125870634Y-96654569D01*
X125942730Y-96650106D01*
X126035524Y-96596281D01*
X126097270Y-96550453D01*
X126214818Y-96428629D01*
X126247089Y-96321381D01*
X126241885Y-96253252D01*
X126210787Y-96224136D01*
X126130565Y-96224960D01*
X126034302Y-96238259D01*
X125896170Y-96266333D01*
X125791889Y-96300857D01*
X125765519Y-96316026D01*
X125715879Y-96406308D01*
X125319602Y-96406308D01*
X125330849Y-96323407D01*
X125409952Y-96184603D01*
X125552060Y-96081412D01*
X125765577Y-96007644D01*
X126047027Y-95958579D01*
X126206131Y-95932006D01*
X126293735Y-95897602D01*
X126327931Y-95848065D01*
X126328592Y-95844911D01*
X126314570Y-95734490D01*
X126239553Y-95662448D01*
X126127231Y-95637922D01*
X126001297Y-95670048D01*
X125953270Y-95700162D01*
X125853763Y-95742443D01*
X125714465Y-95765834D01*
X125675925Y-95767358D01*
X125539118Y-95750705D01*
X125484627Y-95699519D01*
X125513024Y-95615950D01*
X125608729Y-95515859D01*
X125808093Y-95396869D01*
X126050485Y-95332566D01*
X126304758Y-95327386D01*
X126535393Y-95383917D01*
G37*
G36*
X119151403Y-94746925D02*
G01*
X119370722Y-94760846D01*
X119383119Y-95421604D01*
X119389420Y-95683569D01*
X119397858Y-95868193D01*
X119409886Y-95987727D01*
X119426959Y-96054424D01*
X119450529Y-96080534D01*
X119461514Y-96082363D01*
X119520352Y-96057495D01*
X119527512Y-96037013D01*
X119545961Y-95982754D01*
X119596844Y-95862932D01*
X119673463Y-95692580D01*
X119769122Y-95486732D01*
X119826839Y-95365055D01*
X120126165Y-94738447D01*
X120357705Y-94738447D01*
X120589246Y-94738447D01*
X120624267Y-95332010D01*
X120637618Y-95559449D01*
X120649210Y-95759129D01*
X120657925Y-95911596D01*
X120662641Y-95997396D01*
X120662965Y-96003968D01*
X120669339Y-96056622D01*
X120684938Y-96075032D01*
X120713963Y-96052181D01*
X120760614Y-95981054D01*
X120829094Y-95854635D01*
X120923602Y-95665910D01*
X121048339Y-95407861D01*
X121159219Y-95175220D01*
X121366701Y-94738447D01*
X121567036Y-94738447D01*
X121686851Y-94745035D01*
X121758438Y-94761690D01*
X121767371Y-94771402D01*
X121749331Y-94827059D01*
X121702861Y-94935586D01*
X121659265Y-95028986D01*
X121526365Y-95306080D01*
X121385598Y-95601205D01*
X121245595Y-95896123D01*
X121114984Y-96172595D01*
X121002394Y-96412383D01*
X120916454Y-96597249D01*
X120890655Y-96653527D01*
X120763190Y-96933509D01*
X120526127Y-96933509D01*
X120289064Y-96933509D01*
X120288453Y-96339947D01*
X120286200Y-96109518D01*
X120280481Y-95904178D01*
X120272123Y-95744421D01*
X120261953Y-95650740D01*
X120260350Y-95643758D01*
X120215416Y-95568205D01*
X120159523Y-95571772D01*
X120117752Y-95651550D01*
X120115893Y-95660502D01*
X120087592Y-95742920D01*
X120067833Y-95768783D01*
X120037936Y-95815241D01*
X119977541Y-95927474D01*
X119894505Y-96090288D01*
X119796684Y-96288489D01*
X119760920Y-96362345D01*
X119485685Y-96933509D01*
X119265071Y-96933509D01*
X119129870Y-96928073D01*
X119058562Y-96904799D01*
X119025752Y-96853236D01*
X119020104Y-96832715D01*
X119011612Y-96759700D01*
X119001437Y-96611577D01*
X118990316Y-96402798D01*
X118978987Y-96147818D01*
X118968188Y-95861089D01*
X118963918Y-95732463D01*
X118932084Y-94733005D01*
X119151403Y-94746925D01*
G37*
G36*
X122165793Y-95331376D02*
G01*
X122197897Y-95368767D01*
X122210348Y-95443783D01*
X122202631Y-95566614D01*
X122174234Y-95747447D01*
X122124644Y-95996473D01*
X122067175Y-96261551D01*
X121923488Y-96911111D01*
X121707191Y-96924921D01*
X121578375Y-96929304D01*
X121518914Y-96916188D01*
X121509203Y-96878749D01*
X121514191Y-96857726D01*
X121531726Y-96782265D01*
X121561232Y-96640424D01*
X121598290Y-96453909D01*
X121631005Y-96283950D01*
X121691228Y-95969949D01*
X121740348Y-95733092D01*
X121783842Y-95562478D01*
X121827188Y-95447203D01*
X121875862Y-95376367D01*
X121935342Y-95339065D01*
X122011104Y-95324397D01*
X122108625Y-95321459D01*
X122114549Y-95321422D01*
X122165793Y-95331376D01*
G37*
G36*
X123781971Y-95340222D02*
G01*
X123934579Y-95414118D01*
X124053200Y-95507424D01*
X124245946Y-95414118D01*
X124475870Y-95334574D01*
X124671623Y-95336262D01*
X124829937Y-95413656D01*
X124903492Y-95486816D01*
X124938523Y-95576681D01*
X124947938Y-95718015D01*
X124947971Y-95731541D01*
X124934964Y-95917022D01*
X124902242Y-96118043D01*
X124885708Y-96187461D01*
X124839055Y-96372182D01*
X124790915Y-96580476D01*
X124770503Y-96675925D01*
X124717560Y-96933509D01*
X124519185Y-96933509D01*
X124396524Y-96929525D01*
X124338909Y-96906256D01*
X124321820Y-96846728D01*
X124320810Y-96796173D01*
X124334244Y-96670402D01*
X124362586Y-96580777D01*
X124391190Y-96496933D01*
X124423843Y-96356791D01*
X124449579Y-96214145D01*
X124478188Y-96042209D01*
X124506495Y-95889199D01*
X124524623Y-95804446D01*
X124533938Y-95712970D01*
X124486955Y-95668767D01*
X124441803Y-95655046D01*
X124319791Y-95651059D01*
X124239752Y-95674620D01*
X124154782Y-95756908D01*
X124068174Y-95900361D01*
X123993302Y-96077816D01*
X123943537Y-96262108D01*
X123939798Y-96283950D01*
X123913728Y-96438730D01*
X123880792Y-96622215D01*
X123866530Y-96698324D01*
X123821689Y-96933509D01*
X123597861Y-96933509D01*
X123465373Y-96929184D01*
X123403177Y-96911265D01*
X123392180Y-96872334D01*
X123396105Y-96855114D01*
X123419664Y-96753350D01*
X123440431Y-96642327D01*
X123459272Y-96537204D01*
X123490157Y-96373761D01*
X123527478Y-96181519D01*
X123541157Y-96112218D01*
X123577233Y-95919843D01*
X123593461Y-95796678D01*
X123590448Y-95724705D01*
X123568801Y-95685906D01*
X123555846Y-95676131D01*
X123433573Y-95642422D01*
X123314297Y-95689576D01*
X123204189Y-95808918D01*
X123109419Y-95991772D01*
X123036159Y-96229463D01*
X122995997Y-96463139D01*
X122970589Y-96623003D01*
X122937310Y-96765913D01*
X122922955Y-96810317D01*
X122882041Y-96888477D01*
X122817604Y-96924267D01*
X122698598Y-96933447D01*
X122680279Y-96933509D01*
X122562130Y-96926665D01*
X122492695Y-96909396D01*
X122484908Y-96899911D01*
X122493850Y-96828200D01*
X122516674Y-96689347D01*
X122549563Y-96504038D01*
X122588698Y-96292960D01*
X122630262Y-96076798D01*
X122670436Y-95876240D01*
X122697819Y-95746384D01*
X122775840Y-95388006D01*
X122988360Y-95374353D01*
X123116414Y-95374677D01*
X123191045Y-95392168D01*
X123200881Y-95405665D01*
X123236841Y-95420553D01*
X123330533Y-95395937D01*
X123356232Y-95385721D01*
X123578921Y-95327264D01*
X123781971Y-95340222D01*
G37*
G36*
X128574679Y-95383353D02*
G01*
X128689639Y-95501118D01*
X128709793Y-95542042D01*
X128732750Y-95614681D01*
X128740770Y-95700286D01*
X128732611Y-95817754D01*
X128707031Y-95985982D01*
X128666130Y-96206569D01*
X128613920Y-96474356D01*
X128572570Y-96666683D01*
X128535837Y-96796040D01*
X128497480Y-96874912D01*
X128451257Y-96915790D01*
X128390924Y-96931159D01*
X128310242Y-96933510D01*
X128302779Y-96933509D01*
X128116393Y-96933509D01*
X128145107Y-96720723D01*
X128171519Y-96561782D01*
X128211155Y-96363646D01*
X128247906Y-96201199D01*
X128289832Y-95955183D01*
X128280706Y-95777990D01*
X128220867Y-95671665D01*
X128155355Y-95641607D01*
X128017951Y-95654498D01*
X127895430Y-95750112D01*
X127786857Y-95929998D01*
X127691293Y-96195703D01*
X127608590Y-96544753D01*
X127532206Y-96933509D01*
X127345086Y-96933509D01*
X127224197Y-96928973D01*
X127147348Y-96917619D01*
X127137182Y-96912726D01*
X127137412Y-96862707D01*
X127154254Y-96742741D01*
X127184140Y-96570173D01*
X127223506Y-96362348D01*
X127268787Y-96136612D01*
X127316416Y-95910310D01*
X127362828Y-95700789D01*
X127404458Y-95525393D01*
X127437741Y-95401468D01*
X127459111Y-95346360D01*
X127459168Y-95346300D01*
X127523235Y-95328495D01*
X127625522Y-95338623D01*
X127732237Y-95368013D01*
X127809585Y-95407994D01*
X127827805Y-95440887D01*
X127856729Y-95454296D01*
X127943399Y-95428073D01*
X127993630Y-95405559D01*
X128211219Y-95332628D01*
X128410054Y-95326208D01*
X128574679Y-95383353D01*
G37*
G36*
X128376859Y-92923125D02*
G01*
X128817461Y-92987035D01*
X129181145Y-93093227D01*
X129467292Y-93241436D01*
X129675284Y-93431396D01*
X129804502Y-93662842D01*
X129829506Y-93747252D01*
X129859554Y-93916863D01*
X129852407Y-94052146D01*
X129828036Y-94143141D01*
X129681723Y-94452313D01*
X129453981Y-94731988D01*
X129369304Y-94810927D01*
X129233547Y-94919622D01*
X129082249Y-95024173D01*
X128934073Y-95113828D01*
X128807681Y-95177837D01*
X128721738Y-95205447D01*
X128696312Y-95198634D01*
X128674994Y-95131514D01*
X128659898Y-95046367D01*
X128665418Y-94964332D01*
X128716085Y-94886254D01*
X128827445Y-94789390D01*
X128844488Y-94776291D01*
X129083352Y-94560593D01*
X129255260Y-94333155D01*
X129354459Y-94104683D01*
X129375196Y-93885883D01*
X129362518Y-93812224D01*
X129287739Y-93665071D01*
X129146610Y-93513042D01*
X128959454Y-93373957D01*
X128746591Y-93265638D01*
X128733332Y-93260463D01*
X128516252Y-93201178D01*
X128230445Y-93158865D01*
X127895281Y-93134176D01*
X127530128Y-93127762D01*
X127154356Y-93140275D01*
X126787333Y-93172367D01*
X126650264Y-93190400D01*
X125863744Y-93334212D01*
X125048271Y-93537575D01*
X124232667Y-93791561D01*
X123445751Y-94087245D01*
X122753677Y-94397326D01*
X122575658Y-94479202D01*
X122433733Y-94534293D01*
X122344374Y-94556694D01*
X122322751Y-94551840D01*
X122310090Y-94530255D01*
X122309827Y-94510330D01*
X122332766Y-94485239D01*
X122389710Y-94448156D01*
X122491460Y-94392256D01*
X122648822Y-94310711D01*
X122872596Y-94196697D01*
X122935194Y-94164858D01*
X123618381Y-93848237D01*
X124342914Y-93569462D01*
X125091040Y-93333085D01*
X125845009Y-93143660D01*
X126587070Y-93005740D01*
X127299470Y-92923877D01*
X127859957Y-92901763D01*
X128376859Y-92923125D01*
G37*
G36*
X122235345Y-94849584D02*
G01*
X122288047Y-94948402D01*
X122271433Y-95073632D01*
X122261046Y-95095133D01*
X122178327Y-95167594D01*
X122064071Y-95183211D01*
X121959890Y-95136870D01*
X121955519Y-95132663D01*
X121906496Y-95037070D01*
X121905528Y-94924636D01*
X121948430Y-94833534D01*
X121991357Y-94805643D01*
X122130667Y-94795793D01*
X122235345Y-94849584D01*
G37*
G36*
X127674938Y-93333795D02*
G01*
X128027556Y-93380841D01*
X128318769Y-93463613D01*
X128540066Y-93582428D01*
X128607021Y-93640037D01*
X128726861Y-93811871D01*
X128761748Y-93996975D01*
X128714198Y-94189219D01*
X128586727Y-94382472D01*
X128381852Y-94570603D01*
X128167415Y-94711293D01*
X128045057Y-94777399D01*
X127977066Y-94798886D01*
X127942654Y-94779915D01*
X127932230Y-94758364D01*
X127909962Y-94680114D01*
X127926265Y-94621413D01*
X127995224Y-94558175D01*
X128085522Y-94496223D01*
X128246169Y-94361802D01*
X128368567Y-94205286D01*
X128435016Y-94051604D01*
X128441983Y-93994136D01*
X128402639Y-93863050D01*
X128297612Y-93730279D01*
X128147062Y-93619799D01*
X128112312Y-93602035D01*
X127853898Y-93517279D01*
X127525762Y-93470849D01*
X127138445Y-93461256D01*
X126702488Y-93487012D01*
X126228429Y-93546628D01*
X125726810Y-93638616D01*
X125208171Y-93761486D01*
X124683051Y-93913751D01*
X124161992Y-94093921D01*
X123898431Y-94197208D01*
X123715280Y-94269410D01*
X123564533Y-94323840D01*
X123464109Y-94354342D01*
X123432087Y-94357426D01*
X123457011Y-94328210D01*
X123551236Y-94274023D01*
X123700133Y-94201248D01*
X123889076Y-94116267D01*
X124103434Y-94025462D01*
X124328581Y-93935216D01*
X124549888Y-93851910D01*
X124746384Y-93783990D01*
X125288685Y-93623346D01*
X125820652Y-93496522D01*
X126333773Y-93403838D01*
X126819535Y-93345611D01*
X127269427Y-93322157D01*
X127674938Y-93333795D01*
G37*
G36*
X127124790Y-93817672D02*
G01*
X127394871Y-93854176D01*
X127600018Y-93919548D01*
X127685953Y-93972223D01*
X127756063Y-94075364D01*
X127744836Y-94195752D01*
X127655749Y-94321761D01*
X127557667Y-94401221D01*
X127428244Y-94474552D01*
X127317812Y-94511826D01*
X127247346Y-94507897D01*
X127232910Y-94480864D01*
X127268127Y-94438405D01*
X127353957Y-94378728D01*
X127368079Y-94370508D01*
X127498318Y-94265328D01*
X127540514Y-94153886D01*
X127495000Y-94044651D01*
X127362110Y-93946090D01*
X127351179Y-93940610D01*
X127196187Y-93896840D01*
X126969994Y-93876892D01*
X126687338Y-93879247D01*
X126362953Y-93902382D01*
X126011576Y-93944779D01*
X125647942Y-94004917D01*
X125286786Y-94081275D01*
X124942845Y-94172334D01*
X124859954Y-94197633D01*
X124679441Y-94252466D01*
X124533831Y-94293054D01*
X124442100Y-94314313D01*
X124420353Y-94315356D01*
X124453069Y-94295689D01*
X124553754Y-94255203D01*
X124705100Y-94200555D01*
X124824197Y-94160009D01*
X125227566Y-94040128D01*
X125639234Y-93944310D01*
X126046996Y-93873354D01*
X126438647Y-93828062D01*
X126801980Y-93809234D01*
X127124790Y-93817672D01*
G37*
D12*
%TO.C,C1*%
X121880000Y-85130000D02*
X129120000Y-85130000D01*
X121880000Y-87870000D02*
X121880000Y-85130000D01*
X129120000Y-85130000D02*
X129120000Y-87870000D01*
X129120000Y-87870000D02*
X121880000Y-87870000D01*
%TO.C,U1*%
X119860000Y-81895000D02*
X130140000Y-81895000D01*
X130140000Y-81895000D02*
X130140000Y-76595000D01*
X119860000Y-80245000D02*
X119860000Y-81895000D01*
X119860000Y-76595000D02*
X119860000Y-78245000D01*
X130140000Y-76595000D02*
X119860000Y-76595000D01*
X119860000Y-78245000D02*
G75*
G02*
X119860000Y-80245000I0J-1000000D01*
G01*
%TO.C,TP3*%
X111630000Y-97090000D02*
X116830000Y-97090000D01*
X111630000Y-97090000D02*
X111630000Y-88460000D01*
X111750000Y-97090000D02*
X111750000Y-88460000D01*
X111868095Y-97090000D02*
X111868095Y-88460000D01*
X111986190Y-97090000D02*
X111986190Y-88460000D01*
X112104285Y-97090000D02*
X112104285Y-88460000D01*
X112222380Y-97090000D02*
X112222380Y-88460000D01*
X112340475Y-97090000D02*
X112340475Y-88460000D01*
X112458570Y-97090000D02*
X112458570Y-88460000D01*
X112576665Y-97090000D02*
X112576665Y-88460000D01*
X112694760Y-97090000D02*
X112694760Y-88460000D01*
X112812855Y-97090000D02*
X112812855Y-88460000D01*
X112930950Y-97090000D02*
X112930950Y-88460000D01*
X113049045Y-97090000D02*
X113049045Y-88460000D01*
X113167140Y-97090000D02*
X113167140Y-88460000D01*
X113285235Y-97090000D02*
X113285235Y-88460000D01*
X113403330Y-97090000D02*
X113403330Y-88460000D01*
X113521425Y-97090000D02*
X113521425Y-88460000D01*
X113639520Y-97090000D02*
X113639520Y-88460000D01*
X113757615Y-97090000D02*
X113757615Y-88460000D01*
X113875710Y-97090000D02*
X113875710Y-88460000D01*
X113993805Y-97090000D02*
X113993805Y-88460000D01*
X114111900Y-97090000D02*
X114111900Y-88460000D01*
X114230000Y-97090000D02*
X114230000Y-88460000D01*
X116830000Y-97090000D02*
X116830000Y-88460000D01*
X111630000Y-88460000D02*
X116830000Y-88460000D01*
X112600000Y-88460000D02*
X112600000Y-88110000D01*
X113320000Y-88460000D02*
X113320000Y-88110000D01*
X115140000Y-88460000D02*
X115140000Y-88050000D01*
X115860000Y-88460000D02*
X115860000Y-88050000D01*
X111630000Y-87000000D02*
X111630000Y-85890000D01*
X111630000Y-85890000D02*
X112960000Y-85890000D01*
%TO.C,TP2*%
X132170000Y-97090000D02*
X137370000Y-97090000D01*
X132170000Y-97090000D02*
X132170000Y-88460000D01*
X132290000Y-97090000D02*
X132290000Y-88460000D01*
X132408095Y-97090000D02*
X132408095Y-88460000D01*
X132526190Y-97090000D02*
X132526190Y-88460000D01*
X132644285Y-97090000D02*
X132644285Y-88460000D01*
X132762380Y-97090000D02*
X132762380Y-88460000D01*
X132880475Y-97090000D02*
X132880475Y-88460000D01*
X132998570Y-97090000D02*
X132998570Y-88460000D01*
X133116665Y-97090000D02*
X133116665Y-88460000D01*
X133234760Y-97090000D02*
X133234760Y-88460000D01*
X133352855Y-97090000D02*
X133352855Y-88460000D01*
X133470950Y-97090000D02*
X133470950Y-88460000D01*
X133589045Y-97090000D02*
X133589045Y-88460000D01*
X133707140Y-97090000D02*
X133707140Y-88460000D01*
X133825235Y-97090000D02*
X133825235Y-88460000D01*
X133943330Y-97090000D02*
X133943330Y-88460000D01*
X134061425Y-97090000D02*
X134061425Y-88460000D01*
X134179520Y-97090000D02*
X134179520Y-88460000D01*
X134297615Y-97090000D02*
X134297615Y-88460000D01*
X134415710Y-97090000D02*
X134415710Y-88460000D01*
X134533805Y-97090000D02*
X134533805Y-88460000D01*
X134651900Y-97090000D02*
X134651900Y-88460000D01*
X134770000Y-97090000D02*
X134770000Y-88460000D01*
X137370000Y-97090000D02*
X137370000Y-88460000D01*
X132170000Y-88460000D02*
X137370000Y-88460000D01*
X133140000Y-88460000D02*
X133140000Y-88110000D01*
X133860000Y-88460000D02*
X133860000Y-88110000D01*
X135680000Y-88460000D02*
X135680000Y-88050000D01*
X136400000Y-88460000D02*
X136400000Y-88050000D01*
X132170000Y-87000000D02*
X132170000Y-85890000D01*
X132170000Y-85890000D02*
X133500000Y-85890000D01*
%TO.C,TP1*%
X133870000Y-72690000D02*
X139070000Y-72690000D01*
X133870000Y-72690000D02*
X133870000Y-64060000D01*
X133990000Y-72690000D02*
X133990000Y-64060000D01*
X134108095Y-72690000D02*
X134108095Y-64060000D01*
X134226190Y-72690000D02*
X134226190Y-64060000D01*
X134344285Y-72690000D02*
X134344285Y-64060000D01*
X134462380Y-72690000D02*
X134462380Y-64060000D01*
X134580475Y-72690000D02*
X134580475Y-64060000D01*
X134698570Y-72690000D02*
X134698570Y-64060000D01*
X134816665Y-72690000D02*
X134816665Y-64060000D01*
X134934760Y-72690000D02*
X134934760Y-64060000D01*
X135052855Y-72690000D02*
X135052855Y-64060000D01*
X135170950Y-72690000D02*
X135170950Y-64060000D01*
X135289045Y-72690000D02*
X135289045Y-64060000D01*
X135407140Y-72690000D02*
X135407140Y-64060000D01*
X135525235Y-72690000D02*
X135525235Y-64060000D01*
X135643330Y-72690000D02*
X135643330Y-64060000D01*
X135761425Y-72690000D02*
X135761425Y-64060000D01*
X135879520Y-72690000D02*
X135879520Y-64060000D01*
X135997615Y-72690000D02*
X135997615Y-64060000D01*
X136115710Y-72690000D02*
X136115710Y-64060000D01*
X136233805Y-72690000D02*
X136233805Y-64060000D01*
X136351900Y-72690000D02*
X136351900Y-64060000D01*
X136470000Y-72690000D02*
X136470000Y-64060000D01*
X139070000Y-72690000D02*
X139070000Y-64060000D01*
X133870000Y-64060000D02*
X139070000Y-64060000D01*
X134840000Y-64060000D02*
X134840000Y-63710000D01*
X135560000Y-64060000D02*
X135560000Y-63710000D01*
X137380000Y-64060000D02*
X137380000Y-63650000D01*
X138100000Y-64060000D02*
X138100000Y-63650000D01*
X133870000Y-62600000D02*
X133870000Y-61490000D01*
X133870000Y-61490000D02*
X135200000Y-61490000D01*
%TO.C,R2*%
X129420000Y-69586728D02*
G75*
G02*
X127580000Y-69586728I-920000J-1453272D01*
G01*
%TO.C,R1*%
X124170000Y-69836728D02*
G75*
G02*
X122330000Y-69836728I-920000J-1453272D01*
G01*
%TO.C,C2*%
X110425000Y-72817082D02*
X110425000Y-71567082D01*
X109800000Y-72192082D02*
X111050000Y-72192082D01*
X107670000Y-66000000D02*
X120330000Y-66000000D01*
X107670000Y-65960000D02*
X120330000Y-65960000D01*
X107671000Y-65920000D02*
X120329000Y-65920000D01*
X107671000Y-65880000D02*
X120329000Y-65880000D01*
X107672000Y-65840000D02*
X120328000Y-65840000D01*
X107673000Y-65800000D02*
X120327000Y-65800000D01*
X107675000Y-65760000D02*
X120325000Y-65760000D01*
X107676000Y-65720000D02*
X120324000Y-65720000D01*
X107678000Y-65680000D02*
X120322000Y-65680000D01*
X107680000Y-65640000D02*
X120320000Y-65640000D01*
X107683000Y-65600000D02*
X120317000Y-65600000D01*
X107685000Y-65560000D02*
X120315000Y-65560000D01*
X107688000Y-65520000D02*
X120312000Y-65520000D01*
X107691000Y-65480000D02*
X120309000Y-65480000D01*
X107695000Y-65440000D02*
X120305000Y-65440000D01*
X107698000Y-65400000D02*
X120302000Y-65400000D01*
X107702000Y-65360000D02*
X120298000Y-65360000D01*
X107706000Y-65320000D02*
X120294000Y-65320000D01*
X107711000Y-65280000D02*
X120289000Y-65280000D01*
X107716000Y-65240000D02*
X120284000Y-65240000D01*
X107720000Y-65200000D02*
X120280000Y-65200000D01*
X107726000Y-65160000D02*
X120274000Y-65160000D01*
X107731000Y-65120000D02*
X120269000Y-65120000D01*
X107737000Y-65080000D02*
X120263000Y-65080000D01*
X107743000Y-65040000D02*
X120257000Y-65040000D01*
X107749000Y-65000000D02*
X120251000Y-65000000D01*
X107755000Y-64960000D02*
X120245000Y-64960000D01*
X107762000Y-64920000D02*
X112560000Y-64920000D01*
X115440000Y-64920000D02*
X120238000Y-64920000D01*
X107769000Y-64880000D02*
X112560000Y-64880000D01*
X115440000Y-64880000D02*
X120231000Y-64880000D01*
X107777000Y-64840000D02*
X112560000Y-64840000D01*
X115440000Y-64840000D02*
X120223000Y-64840000D01*
X107784000Y-64800000D02*
X112560000Y-64800000D01*
X115440000Y-64800000D02*
X120216000Y-64800000D01*
X107792000Y-64760000D02*
X112560000Y-64760000D01*
X115440000Y-64760000D02*
X120208000Y-64760000D01*
X107800000Y-64720000D02*
X112560000Y-64720000D01*
X115440000Y-64720000D02*
X120200000Y-64720000D01*
X107808000Y-64680000D02*
X112560000Y-64680000D01*
X115440000Y-64680000D02*
X120192000Y-64680000D01*
X107817000Y-64640000D02*
X112560000Y-64640000D01*
X115440000Y-64640000D02*
X120183000Y-64640000D01*
X107826000Y-64600000D02*
X112560000Y-64600000D01*
X115440000Y-64600000D02*
X120174000Y-64600000D01*
X107835000Y-64560000D02*
X112560000Y-64560000D01*
X115440000Y-64560000D02*
X120165000Y-64560000D01*
X107844000Y-64520000D02*
X112560000Y-64520000D01*
X115440000Y-64520000D02*
X120156000Y-64520000D01*
X107854000Y-64480000D02*
X112560000Y-64480000D01*
X115440000Y-64480000D02*
X120146000Y-64480000D01*
X107864000Y-64440000D02*
X112560000Y-64440000D01*
X115440000Y-64440000D02*
X120136000Y-64440000D01*
X107874000Y-64400000D02*
X112560000Y-64400000D01*
X115440000Y-64400000D02*
X120126000Y-64400000D01*
X107885000Y-64360000D02*
X112560000Y-64360000D01*
X115440000Y-64360000D02*
X120115000Y-64360000D01*
X107896000Y-64320000D02*
X112560000Y-64320000D01*
X115440000Y-64320000D02*
X120104000Y-64320000D01*
X107907000Y-64280000D02*
X112560000Y-64280000D01*
X115440000Y-64280000D02*
X120093000Y-64280000D01*
X107918000Y-64240000D02*
X112560000Y-64240000D01*
X115440000Y-64240000D02*
X120082000Y-64240000D01*
X107930000Y-64200000D02*
X112560000Y-64200000D01*
X115440000Y-64200000D02*
X120070000Y-64200000D01*
X107942000Y-64160000D02*
X112560000Y-64160000D01*
X115440000Y-64160000D02*
X120058000Y-64160000D01*
X107954000Y-64120000D02*
X112560000Y-64120000D01*
X115440000Y-64120000D02*
X120046000Y-64120000D01*
X107966000Y-64080000D02*
X112560000Y-64080000D01*
X115440000Y-64080000D02*
X120034000Y-64080000D01*
X107979000Y-64040000D02*
X112560000Y-64040000D01*
X115440000Y-64040000D02*
X120021000Y-64040000D01*
X107992000Y-64000000D02*
X112560000Y-64000000D01*
X115440000Y-64000000D02*
X120008000Y-64000000D01*
X108005000Y-63960000D02*
X112560000Y-63960000D01*
X115440000Y-63960000D02*
X119995000Y-63960000D01*
X108019000Y-63920000D02*
X112560000Y-63920000D01*
X115440000Y-63920000D02*
X119981000Y-63920000D01*
X108033000Y-63880000D02*
X112560000Y-63880000D01*
X115440000Y-63880000D02*
X119967000Y-63880000D01*
X108047000Y-63840000D02*
X112560000Y-63840000D01*
X115440000Y-63840000D02*
X119953000Y-63840000D01*
X108062000Y-63800000D02*
X112560000Y-63800000D01*
X115440000Y-63800000D02*
X119938000Y-63800000D01*
X108077000Y-63760000D02*
X112560000Y-63760000D01*
X115440000Y-63760000D02*
X119923000Y-63760000D01*
X108092000Y-63720000D02*
X112560000Y-63720000D01*
X115440000Y-63720000D02*
X119908000Y-63720000D01*
X108108000Y-63680000D02*
X112560000Y-63680000D01*
X115440000Y-63680000D02*
X119892000Y-63680000D01*
X108123000Y-63640000D02*
X112560000Y-63640000D01*
X115440000Y-63640000D02*
X119877000Y-63640000D01*
X108139000Y-63600000D02*
X112560000Y-63600000D01*
X115440000Y-63600000D02*
X119861000Y-63600000D01*
X108156000Y-63560000D02*
X112560000Y-63560000D01*
X115440000Y-63560000D02*
X119844000Y-63560000D01*
X108173000Y-63520000D02*
X112560000Y-63520000D01*
X115440000Y-63520000D02*
X119827000Y-63520000D01*
X108190000Y-63480000D02*
X112560000Y-63480000D01*
X115440000Y-63480000D02*
X119810000Y-63480000D01*
X108207000Y-63440000D02*
X112560000Y-63440000D01*
X115440000Y-63440000D02*
X119793000Y-63440000D01*
X108225000Y-63400000D02*
X112560000Y-63400000D01*
X115440000Y-63400000D02*
X119775000Y-63400000D01*
X108243000Y-63360000D02*
X112560000Y-63360000D01*
X115440000Y-63360000D02*
X119757000Y-63360000D01*
X108261000Y-63320000D02*
X112560000Y-63320000D01*
X115440000Y-63320000D02*
X119739000Y-63320000D01*
X108280000Y-63280000D02*
X112560000Y-63280000D01*
X115440000Y-63280000D02*
X119720000Y-63280000D01*
X108299000Y-63240000D02*
X112560000Y-63240000D01*
X115440000Y-63240000D02*
X119701000Y-63240000D01*
X108318000Y-63200000D02*
X112560000Y-63200000D01*
X115440000Y-63200000D02*
X119682000Y-63200000D01*
X108338000Y-63160000D02*
X112560000Y-63160000D01*
X115440000Y-63160000D02*
X119662000Y-63160000D01*
X108358000Y-63120000D02*
X112560000Y-63120000D01*
X115440000Y-63120000D02*
X119642000Y-63120000D01*
X108379000Y-63080000D02*
X112560000Y-63080000D01*
X115440000Y-63080000D02*
X119621000Y-63080000D01*
X108399000Y-63040000D02*
X112560000Y-63040000D01*
X115440000Y-63040000D02*
X119601000Y-63040000D01*
X108421000Y-63000000D02*
X112560000Y-63000000D01*
X115440000Y-63000000D02*
X119579000Y-63000000D01*
X108442000Y-62960000D02*
X112560000Y-62960000D01*
X115440000Y-62960000D02*
X119558000Y-62960000D01*
X108464000Y-62920000D02*
X112560000Y-62920000D01*
X115440000Y-62920000D02*
X119536000Y-62920000D01*
X108486000Y-62880000D02*
X112560000Y-62880000D01*
X115440000Y-62880000D02*
X119514000Y-62880000D01*
X108509000Y-62840000D02*
X112560000Y-62840000D01*
X115440000Y-62840000D02*
X119491000Y-62840000D01*
X108532000Y-62800000D02*
X112560000Y-62800000D01*
X115440000Y-62800000D02*
X119468000Y-62800000D01*
X108556000Y-62760000D02*
X112560000Y-62760000D01*
X115440000Y-62760000D02*
X119444000Y-62760000D01*
X108579000Y-62720000D02*
X112560000Y-62720000D01*
X115440000Y-62720000D02*
X119421000Y-62720000D01*
X108604000Y-62680000D02*
X112560000Y-62680000D01*
X115440000Y-62680000D02*
X119396000Y-62680000D01*
X108628000Y-62640000D02*
X112560000Y-62640000D01*
X115440000Y-62640000D02*
X119372000Y-62640000D01*
X108653000Y-62600000D02*
X112560000Y-62600000D01*
X115440000Y-62600000D02*
X119347000Y-62600000D01*
X108679000Y-62560000D02*
X112560000Y-62560000D01*
X115440000Y-62560000D02*
X119321000Y-62560000D01*
X108705000Y-62520000D02*
X112560000Y-62520000D01*
X115440000Y-62520000D02*
X119295000Y-62520000D01*
X108731000Y-62480000D02*
X112560000Y-62480000D01*
X115440000Y-62480000D02*
X119269000Y-62480000D01*
X108758000Y-62440000D02*
X112560000Y-62440000D01*
X115440000Y-62440000D02*
X119242000Y-62440000D01*
X108785000Y-62400000D02*
X112560000Y-62400000D01*
X115440000Y-62400000D02*
X119215000Y-62400000D01*
X108812000Y-62360000D02*
X112560000Y-62360000D01*
X115440000Y-62360000D02*
X119188000Y-62360000D01*
X108841000Y-62320000D02*
X112560000Y-62320000D01*
X115440000Y-62320000D02*
X119159000Y-62320000D01*
X108869000Y-62280000D02*
X112560000Y-62280000D01*
X115440000Y-62280000D02*
X119131000Y-62280000D01*
X108898000Y-62240000D02*
X112560000Y-62240000D01*
X115440000Y-62240000D02*
X119102000Y-62240000D01*
X108928000Y-62200000D02*
X112560000Y-62200000D01*
X115440000Y-62200000D02*
X119072000Y-62200000D01*
X108958000Y-62160000D02*
X112560000Y-62160000D01*
X115440000Y-62160000D02*
X119042000Y-62160000D01*
X108988000Y-62120000D02*
X112560000Y-62120000D01*
X115440000Y-62120000D02*
X119012000Y-62120000D01*
X109019000Y-62080000D02*
X112560000Y-62080000D01*
X115440000Y-62080000D02*
X118981000Y-62080000D01*
X109050000Y-62040000D02*
X118950000Y-62040000D01*
X109082000Y-62000000D02*
X118918000Y-62000000D01*
X109115000Y-61960000D02*
X118885000Y-61960000D01*
X109148000Y-61920000D02*
X118852000Y-61920000D01*
X109182000Y-61880000D02*
X118818000Y-61880000D01*
X109216000Y-61840000D02*
X118784000Y-61840000D01*
X109251000Y-61800000D02*
X118749000Y-61800000D01*
X109286000Y-61760000D02*
X118714000Y-61760000D01*
X109322000Y-61720000D02*
X118678000Y-61720000D01*
X109359000Y-61680000D02*
X118641000Y-61680000D01*
X109396000Y-61640000D02*
X118604000Y-61640000D01*
X109434000Y-61600000D02*
X118566000Y-61600000D01*
X109472000Y-61560000D02*
X118528000Y-61560000D01*
X109512000Y-61520000D02*
X118488000Y-61520000D01*
X109552000Y-61480000D02*
X118448000Y-61480000D01*
X109592000Y-61440000D02*
X118408000Y-61440000D01*
X109634000Y-61400000D02*
X118366000Y-61400000D01*
X109676000Y-61360000D02*
X118324000Y-61360000D01*
X109719000Y-61320000D02*
X118281000Y-61320000D01*
X109762000Y-61280000D02*
X118238000Y-61280000D01*
X109807000Y-61240000D02*
X118193000Y-61240000D01*
X109852000Y-61200000D02*
X118148000Y-61200000D01*
X109899000Y-61160000D02*
X118101000Y-61160000D01*
X109946000Y-61120000D02*
X118054000Y-61120000D01*
X109994000Y-61080000D02*
X118006000Y-61080000D01*
X110043000Y-61040000D02*
X117957000Y-61040000D01*
X110093000Y-61000000D02*
X117907000Y-61000000D01*
X110144000Y-60960000D02*
X117856000Y-60960000D01*
X110197000Y-60920000D02*
X117803000Y-60920000D01*
X110250000Y-60880000D02*
X117750000Y-60880000D01*
X110305000Y-60840000D02*
X117695000Y-60840000D01*
X110361000Y-60800000D02*
X117639000Y-60800000D01*
X110418000Y-60760000D02*
X117582000Y-60760000D01*
X110477000Y-60720000D02*
X117523000Y-60720000D01*
X110537000Y-60680000D02*
X117463000Y-60680000D01*
X110598000Y-60640000D02*
X117402000Y-60640000D01*
X110661000Y-60600000D02*
X117339000Y-60600000D01*
X110726000Y-60560000D02*
X117274000Y-60560000D01*
X110792000Y-60520000D02*
X117208000Y-60520000D01*
X110861000Y-60480000D02*
X117139000Y-60480000D01*
X110931000Y-60440000D02*
X117069000Y-60440000D01*
X111004000Y-60400000D02*
X116996000Y-60400000D01*
X111079000Y-60360000D02*
X116921000Y-60360000D01*
X111157000Y-60320000D02*
X116843000Y-60320000D01*
X111237000Y-60280000D02*
X116763000Y-60280000D01*
X111320000Y-60240000D02*
X116680000Y-60240000D01*
X111406000Y-60200000D02*
X116594000Y-60200000D01*
X111496000Y-60160000D02*
X116504000Y-60160000D01*
X111590000Y-60120000D02*
X116410000Y-60120000D01*
X111688000Y-60080000D02*
X116312000Y-60080000D01*
X111792000Y-60040000D02*
X116208000Y-60040000D01*
X111901000Y-60000000D02*
X116099000Y-60000000D01*
X112016000Y-59960000D02*
X115984000Y-59960000D01*
X112140000Y-59920000D02*
X115860000Y-59920000D01*
X112273000Y-59880000D02*
X115727000Y-59880000D01*
X112418000Y-59840000D02*
X115582000Y-59840000D01*
X112578000Y-59800000D02*
X115422000Y-59800000D01*
X112760000Y-59760000D02*
X115240000Y-59760000D01*
X112973000Y-59720000D02*
X115027000Y-59720000D01*
X113243000Y-59680000D02*
X114757000Y-59680000D01*
X113683000Y-59640000D02*
X114317000Y-59640000D01*
X120370000Y-66000000D02*
G75*
G02*
X107630000Y-66000000I-6370000J0D01*
G01*
X107630000Y-66000000D02*
G75*
G02*
X120370000Y-66000000I6370000J0D01*
G01*
%TD*%
M02*
